<svg width="114" height="28" viewBox="0 0 114 28" fill="none" xmlns="http://www.w3.org/2000/svg">
<path d="M21.771 17.654C21.0399 15.7815 19.8792 14.3387 18.3145 13.3319C20.0908 12.3508 21.6363 10.9528 22.9188 9.15727C24.631 6.76535 25.7724 4.00791 26.3111 0.961898L26.4778 0H20.963L20.7962 0.961898C20.2255 4.21311 18.9686 6.72687 17.0641 8.43905C15.1531 10.1576 12.8574 10.9913 10.0422 10.9913H8.27232L10.2154 0H4.77101L0 27.0614H5.44434L7.38096 16.0701H9.15086C11.1901 16.0701 12.8638 16.4933 14.1271 17.3334C15.3968 18.1735 16.2368 19.3149 16.6985 20.8026C17.1667 22.316 17.2244 24.0923 16.8717 26.0931L16.705 27.055H22.2198L22.3866 26.0931C22.9445 22.9445 22.7329 20.1037 21.7774 17.6476L21.771 17.654Z" fill="#FF0068"/>
<path d="M52.0195 21.7581L51.0833 27.0614H27.2539L30.1075 10.8759H52.6736L51.7374 16.1791H34.6156L33.6345 21.7581H52.0195Z" fill="#FF0068"/>
<path d="M89.7704 0L88.8214 5.3738H97.7991L93.9771 27.0614H99.492L103.314 5.3738H112.292L113.241 0H89.7704Z" fill="#FF0068"/>
<path d="M76.6501 14.5439L65.8704 0H60.8942L56.1232 27.0614H61.6381L64.947 8.3108L75.2906 22.2391L74.4377 27.0614H79.9526L84.7236 0H79.2087L76.6501 14.5439Z" fill="#FF0068"/>
<path d="M55.8537 0L54.6096 7.06033H30.7802L32.0243 0L37.5135 2.66125L43.939 0L49.4282 2.66125L55.8537 0Z" fill="#FF0068"/>
</svg>
